<?xml version="1.0"?><svg width="153.46" height="357.225" xmlns="http://www.w3.org/2000/svg">
 <switch>
  <g id="svg_1">
   <g id="Layer_1">
    <g id="svg_2">
     <path id="svg_3" d="m71.765999,0.028c2.541,-0.223 2.535004,2.101 4.345001,2.607c-2.396004,1.75 -5.728996,0.649 -8.691002,0.869c-2.994995,0.223 -5.584999,0.253 -9.559998,0.435c-1.337002,0.324 -0.834999,-1.191 -2.173,-0.869c-1.682999,-0.233 -1.789001,1.107 -3.042,1.304c-3.957001,-0.46 -7.504002,-1.657 -9.125,1.737c0.798,3.25 -1.021,6.5 -3.042,8.257c-0.382999,-1.065 -0.538002,-2.359 -1.737999,-2.607c-0.309002,-2.771 1.529999,-3.395 2.172997,-5.214c0.324001,-1.337 -1.192997,-0.835 -0.868999,-2.173c1.281002,-0.457 1.511002,-1.965 2.173,-3.042c4.073002,-0.72 6.313999,-0.309 10.864002,0c0.858997,-1.114 4.132,-2.12 5.213997,-0.436c2.534,-1.792 7.161003,0.626 10.429001,0.869c1.712997,0.121 1.329002,-1.857 3.042,-1.737z"/>
     <path id="svg_4" d="m79.586998,0.462c1.889,-0.15 2.426003,1.051 3.910004,1.304c7.316002,-1.525 11.428001,1.028 18.251999,-0.869c0.765999,1.263 2.337997,1.718 2.606003,3.477c-2.458,-0.561 -6.854004,-0.897 -8.690002,0.435c-4.792,-3.635 -13.415001,2.631 -16.078003,-4.347z"/>
     <path id="svg_5" d="m77.849998,0.897c0.290001,0 0.580002,0 0.869003,0c0,0.29 0,0.579 0,0.869c-0.289001,0 -0.579002,0 -0.869003,0c0,-0.29 0,-0.579 0,-0.869z"/>
     <path id="svg_6" d="m20.055,55.650002c2.647999,-2.551003 4.997999,-6.781002 5.213999,-10.429001c4.893002,-10.692001 7.118002,-21.604 12.601999,-31.288c1.791,-0.074 0.817001,1.941999 2.607002,0.868999c-0.857002,1.952 -0.965,4.320999 -1.737999,6.518c-0.213001,0.606001 -1.535,1.479 -1.738003,2.174c-0.266998,0.914001 0.283001,1.916 0,2.606001c-0.321999,0.785999 -1.386997,0.987999 -1.737999,1.737999c-0.294998,0.630001 -0.083,2.121 -0.435001,3.042c-0.866997,2.268999 -3.033998,6.742002 -3.910999,9.995001c-0.310999,1.154999 -0.028999,2.716999 -0.434999,3.910999c-0.678999,2.000999 -2.708,3.263 -1.737999,5.647999c-0.846001,0.893002 -1.355001,2.121002 -3.042002,2.173c0.338001,0.967003 0.913,1.694 0.869001,3.042c-2.870001,6.690002 -6.574001,12.546001 -7.822001,20.858006c-1.612,0.995995 -2.254999,2.959 -3.477,4.345993c1.061,2.498001 -1.193999,7.317001 -3.042,8.691002c0.924,1.348999 -0.493999,3.360001 -1.738,3.911003c0.915,5.011002 -3.955,7.893997 -3.911,13.471001c-2.666,3.009995 -1.741,7.984001 -0.869,14.339996c0.357,2.606003 1.261,5.170998 1.738,7.821999c0.695,3.862 0.618999,7.912003 1.304,10.865005c0.275,1.186996 0.382,2.139999 1.738,3.041992c-1.4,5.979004 1.634,11.74501 3.042,17.815002c0.745,3.212006 0.703,6.653 1.304,9.994003c0.803,4.464005 1.283,9.300995 2.172999,13.904999c0.404001,2.089996 1.377001,4.022995 1.738001,6.084c0.438999,2.511002 0.055,4.985001 0.434999,7.388c0.088001,0.561996 0.730001,1.216003 0.869001,1.738007c0.49,1.841995 0.043999,3.923996 0.434,5.646988c0.108,0.479004 0.792999,1.261002 0.868999,1.738007c0.242001,1.518005 -0.274,3.281006 0,4.779999c0.258999,1.417999 1.344,2.464005 1.737999,3.910995c0.681,2.501007 0.355001,5.684006 0.869001,8.689011c0.358999,2.098999 1.51,4.149994 1.737999,6.084c0.104,0.881989 -0.529999,1.225998 -0.434999,1.737991c0.316999,1.705002 1.202999,2.880997 1.303999,4.345001c0.201,2.914001 -0.941,5.488998 1.738001,7.389008c0.503,15.740005 6.177999,32.440994 6.518,47.363998c0.332001,2.954987 1.679001,5.645996 2.173,8.69101c1.067001,6.580994 0.834999,13.912994 2.172001,20.423981c0.391998,1.90802 1.552998,3.333008 1.737999,5.21402c0.381001,3.868988 -0.973999,7.461975 1.737999,10.431c-1.142998,4.215973 1,9.941986 0,13.903992c0.958,1.505005 1.799,3.125 1.738003,5.648987c-2.062,1.226013 -2.229,-1.350006 -4.780003,-0.868988c-0.341,-1.790009 0.667,-2.230011 0.435001,-3.911011c-2.52,-6.244995 -2.594002,-15.553986 -3.910999,-23.898987c-0.144001,-0.908997 -0.777,-1.77301 -0.868999,-2.606995c-0.076,-0.684021 0.549,-1.841003 0.434998,-2.606018c-0.181999,-1.214996 -1.103001,-2.520996 -1.304001,-3.910004c-0.132,-0.911987 0.211002,-2.147003 0,-3.041992c-0.338997,-1.436005 -1.489998,-2.897003 -1.737999,-4.346985c-0.312,-1.820007 0.167,-3.858002 0,-5.647003c-0.708,-7.598022 -3.163,-15.556 -3.476999,-23.466003c-0.026001,-0.665009 -0.820999,-1.546021 -0.868999,-2.174011c-0.153,-2.002991 0.313,-3.928986 0,-5.64801c-0.227001,-1.244995 -1.135,-2.258972 -1.304001,-3.47699c-0.114,-0.822998 0.608,-1.35498 0.434999,-2.173004c-0.362,-1.697998 -1.335999,-3.065979 -1.737999,-4.778992c-0.645,-2.747009 -0.314001,-5.891998 -0.868999,-8.690994c-0.452002,-2.278 -1.888,-4.242004 -2.173,-6.519012c-0.167,-1.331985 0.854,-2.607986 0.868999,-3.041992c0.023001,-0.673004 -0.65,-2.285995 -0.868999,-3.042007c-0.458,-1.582993 -1.562,-3.313995 -1.738001,-4.778992c-0.178999,-1.485001 0.486,-3.341003 0.435001,-4.779007c-0.141001,-3.962997 -2.830002,-7.638 -1.303001,-11.298996c-2.483999,-5.626999 -2.609999,-13.612991 -3.910999,-20.423004c0.185999,-1.199997 -1.62,-0.40799 -1.738,-1.304993c0.11,-1.516006 0.750999,-4.731003 -0.869,-5.647995c-0.326,-1.485001 1.766,-0.552002 1.304,-2.173004c-0.372,-2.67601 -1.526999,-5.471008 -1.738,-8.257004c-0.056,-0.735001 0.572001,-1.451996 0.435,-2.173004c-0.576,-3.014999 -1.933001,-6.071991 -2.607,-9.125992c-1.189,-5.388 -2.042,-10.501007 -3.042,-15.643997c-0.574,-2.953003 -1.235,-5.103012 -1.304,-8.256012c-0.047,-2.161987 -1.392,-4.449997 -1.738,-6.952988c-0.264,-1.904007 0.197,-3.997009 0,-5.649002c-0.589,-4.942001 -2.236,-9.726006 -3.911,-14.340004c0.694,-4.517998 -1.318,-8.753998 -0.869,-13.036003c0.247,-2.356995 1.992,-4.351997 1.738,-6.952995c0.651,-0.651001 1.307,-1.300003 2.172,-1.737c1.244,-5.228004 2.991,-9.815002 5.215,-14.340004c1.184,-2.407997 3.079,-4.622002 3.911,-6.952995c0.632,-1.771004 0.344,-3.906006 0.869,-5.649002c0.283999,-0.941002 2.419,-4.504997 2.606999,-6.518997c0.069,-0.738007 -0.657,-1.454002 -0.434999,-2.173004c0.810999,-2.616001 4.115999,-4.287998 3.476999,-7.388c0,-0.145 0,-0.289997 0,-0.433998l0.651001,0.216999l-0.215,-0.648998z"/>
     <path id="svg_7" d="m82.627998,121.265999c0.251999,2.356003 2.760002,2.456001 2.607002,5.215004c-1.141998,2.044998 -3.183998,3.188995 -4.778999,4.779999c-1.812004,0.218002 -1.916,-1.270004 -3.912003,-0.869003c-0.444,-2.709999 -1.548996,-4.659996 -0.868996,-7.387001c1.931999,-1.693001 3.613998,-2.296997 6.952995,-1.738998z"/>
     <path id="svg_8" d="m98.708,121.700996c1.442001,5.166 -1.005997,9.534996 -5.648003,9.994011c-5.514,-2.865005 -2.456001,-14.281006 5.648003,-9.994011z"/>
     <path id="svg_9" d="m87.844002,132.563995c2.855995,0.779999 5.167,5.70401 3.910995,7.822006c-2.108994,0.371002 -2.466995,-1.009995 -3.042999,-2.173004c-0.724998,0.580002 -0.673996,1.932999 -1.303001,2.606003c-4.950996,0.944 -5.292999,-2.843994 -3.911995,-6.084c2.725998,0.554001 2.833,-1.511993 4.347,-2.171005z"/>
     <path id="svg_10" d="m96.535004,133.867996c0.238998,0.962997 -0.828003,0.617996 -0.869003,1.303009c-1.083,-0.17601 -0.026001,-1.684006 0.869003,-1.303009z"/>
     <path id="svg_11" d="m99.141998,134.302994c1.749001,0.315994 0.025002,2.039001 -0.868996,0.869003c0.106995,-0.472 0.863998,-0.294998 0.868996,-0.869003z"/>
     <path id="svg_12" d="m59.164001,135.606003c0.903,0.244003 0.920998,0.679001 0.434998,1.304993c-0.290001,0 -0.579998,0 -0.868999,0c-0.123001,-0.703003 0.41,-0.748993 0.434002,-1.304993z"/>
     <path id="svg_13" d="m80.457001,143.427994c1.371002,0.737 0.541,2.020996 0.435997,3.475998c-0.980995,-0.322998 -0.171997,-2.436996 -0.435997,-3.475998z"/>
     <path id="svg_14" d="m110.441002,1.766c1.127998,2.06 1.494995,4.878 3.476997,6.083c-0.135002,1.583 0.068001,2.828 0.434998,3.911c2.856003,5.254999 5.014999,11.209 6.953003,17.382c2.962997,4.568998 3.735001,11.329 7.388,15.209002c0.916992,6.036999 5.779007,10.440998 6.082993,15.644997c0.604004,0.988003 1.504013,1.684002 2.173004,2.606003c0.701004,5.092999 2.755997,8.832996 5.214996,12.166996c0.276001,4.648003 3.629013,6.223 4.780014,9.995003c0.357986,1.228996 -0.612015,1.125999 -0.435013,2.172997c3.395004,3.612007 3.119003,8.655006 6.082001,12.167c0.31601,1.187004 -0.862,0.875 -0.867996,1.738007c1.104004,0.199997 1.229004,1.376999 1.737,2.172997c-0.074005,4.479004 -0.774002,8.573997 -1.737,11.733002c0.164001,1.321999 -1.578995,0.737 -1.738007,1.737c-0.324997,1.485001 1.767014,0.553001 1.304001,2.172997c-2.14299,3.650002 -1.520996,10.06501 -4.344986,13.036003c0.348999,5.343994 -1.374008,7.503998 -2.173004,12.602997c-0.525009,3.352997 -2.518005,6.541 -3.042007,10.863998c-0.225998,1.848999 0.289001,3.417007 0,5.215012c-0.485001,3.022995 -2.598999,5.549988 -2.606003,9.125c0.072006,1.08699 -0.667999,1.358994 -1.304993,1.737991c2.104004,2.843994 0.020004,5.763 -0.869003,9.125c-0.792999,3.005005 -0.87999,7.643997 -1.737991,10.863007c-0.348999,1.309998 -1.229004,2.003998 -1.303009,3.041992c-0.088989,1.251999 0.63501,2.673996 0.434006,3.910995c-0.233002,1.447006 -1.341995,2.532013 -1.737,3.910004c-1.856003,6.459 -0.442001,13.983002 -3.910004,19.555008c-0.431,1.153992 0.457001,2.377991 0.434998,3.477997c-0.061996,2.934998 -1.895996,5.470001 -2.605995,8.257004c-1.054001,4.121002 -0.128998,8.381989 -2.606003,11.297989c1.469002,4.358002 -1.623001,8.669006 -2.173996,13.035995c-0.203003,1.619019 0.265999,3.221008 0,4.779999c-0.18,1.056 -1.004005,1.559021 -1.304001,2.606018c-0.695999,2.441986 -0.016998,5.225983 -0.435005,7.820984c-0.566994,3.529999 -2.587997,6.261017 -2.173996,11.733002c-1.419998,3.361023 -3.251999,8.619019 -2.173004,13.035004c-3.588997,8.106995 -3.758995,18.102997 -6.083,27.812012c-0.387993,1.618988 -1.520996,2.729004 -1.737999,5.214996c-0.322998,3.710999 -0.200996,8.574005 -0.868996,12.60199c-0.664001,4.018005 -2.227005,6.093994 -0.435005,9.562012c-0.455994,1.570007 -1.648994,2.406006 -2.605995,3.47699c-5.223,0.572998 -14.75,-0.960999 -19.988998,0.869019c-9.068001,-1.976013 -17.433006,-0.571014 -24.769005,-2.173004c-3.946999,2.029999 -8.502998,0.52298 -12.601997,0.868988c-0.042999,-1.781982 -0.084999,-3.562012 0.434998,-4.779999c5.751003,1.054016 17.548004,1.479004 23.466003,0.436005c3.981995,1.669983 11.490997,-0.019012 17.816002,0.434998c1.275993,0.091003 2.309998,0.895996 3.477997,0.868988c2.589996,-0.061981 5.284996,-1.472992 7.82,-0.868988c1.473,-1.576996 2.337997,-6.056 1.737999,-8.256989c2.104004,-2.096008 1.112999,-7.287018 3.476997,-9.125c-0.802994,-2.417999 0.529007,-4.561005 0.869003,-6.953003c0.707001,-4.980011 0.596001,-10.387024 1.737999,-15.209015c0.335999,-1.416992 1.438004,-2.518005 1.737999,-3.91098c0.595001,-2.759003 0.953003,-5.938019 1.304001,-8.689026c0.202003,-1.598999 -0.311996,-3.502991 0,-5.215973c0.606003,-3.338013 3.312004,-6.874023 1.737999,-10.429016c2.444,-2.914001 1.337006,-9.381989 3.041,-13.036011c-0.061996,-1.242981 -1.811996,-0.794983 -3.041,-0.868988c-0.465996,2.302002 -1.750999,5.217987 -0.868996,9.125c-0.708,0.886993 -0.913002,2.273987 -1.737,3.041992c-0.505005,6.507996 -1.890999,12.710999 -3.042999,18.687012c-2.121002,10.987 -3.796005,21.518005 -6.084,32.591003c-0.299004,1.167999 0.897995,0.839996 1.305,1.303986c-3.164001,2.919006 -2.730003,9.438019 -4.347,13.904999c-8.431007,0.852997 -19.006004,-0.248993 -26.072006,1.304016c-1.916,-0.759003 -7.424999,-1.84201 -9.124996,0c-4.202,-1.59201 -9.694,-1.894012 -15.644001,-1.737c-1.032001,-7.645996 -1.658001,-14.062012 -3.042,-22.598022c-0.43,-2.649994 -1.003002,-4.279999 -1.304001,-8.688995c-0.278999,-4.091003 -1.23,-7.375 -1.737999,-12.602997c-0.234001,-2.406006 -1.434002,-4.630981 -1.737999,-6.953003c-0.188004,-1.431 0.224998,-2.92099 0,-4.345978c-0.376003,-2.381012 -1.877003,-5.397003 -2.172001,-8.689026c-0.063999,-0.71698 0.536999,-1.483978 0.434998,-2.173981c-0.495998,-3.322021 -1.889,-6.893005 -2.172997,-10.429993c-0.150002,-1.868011 0.356998,-3.45401 0,-5.21402c-0.647003,-3.186981 -0.653004,-8.493988 -1.738003,-12.602997c-0.257999,-0.979004 -1.097,-1.992004 -1.303999,-3.041c-0.441,-2.240997 -0.085001,-4.619995 -0.434999,-6.953003c-0.094,-0.626999 -0.726,-1.110001 -0.869001,-1.737991c-0.924999,-4.048996 -0.775999,-9.059998 -1.737999,-13.471008c-0.472,-2.166992 -1.708,-3.584991 -1.302999,-6.952988c-0.402,-1.046005 -0.793001,-2.104004 -1.304001,-3.042007c-0.900999,-14.371994 -4.114,-23.839996 -5.215,-38.238998c-0.007,-1.296997 -1.129,-1.477997 -1.302999,-2.606995c-0.286001,-2.320999 0.676001,-5.891006 -1.738001,-6.084c-0.324999,-1.339005 1.498001,-0.528 0.869001,-2.173004c-1.768002,-3.650009 -0.063002,-8.505005 -3.042001,-10.429001c1.751,-3.145996 -1.47,-6.264999 -0.869,-10.863998c-4.368999,-6.544006 -2.566999,-17.681 -5.214,-24.334c0.125,-1.179001 0.559,-2.048004 1.303,-2.606003c-3.689,-1.636002 -0.551001,-6.086998 -3.476,-9.125c0.257,-0.902 0.836,-1.481003 1.738,-1.737999c1.273999,-8.140999 5.580999,-13.25 7.822,-20.423004c0.315001,-1.328995 -0.75,-1.278 -0.434999,-2.606995c2.872,-3.212006 4.052,-8.115005 6.518,-11.732002c-0.374001,-3.954002 2.667999,-4.946999 2.173,-7.821999c0.885,-0.129005 1.157999,-0.870003 1.737999,-1.304001c-0.132999,-5.349003 2.644001,-7.785 3.042,-12.603001c0.773001,-0.386002 1.104,-1.213001 2.607002,-0.868999c0.035,-5.249001 1.355999,-6.947002 2.173,-11.732002c1.899998,-0.562 2.731998,-2.193001 3.910999,-3.476997c-2.089001,-3.538002 0.93,-4.788002 0.434998,-8.257002c2.147003,-3.791 3.333,-8.543999 4.346001,-13.470999c1.164001,-0.137001 1.963001,-4.564001 3.042,-4.780001c2.021,-0.404 0.241001,0.075 0,-2.606c1.407001,-0.583 3.274002,-1.268 4.346001,0c0.846001,-1.65 1.355999,-0.934 3.042,-0.436c2.632999,-1.718 6.902,-0.25 9.993999,-0.435c0.852001,-0.052 1.483997,-0.894 2.173,-0.869c0.772003,0.026 1.420998,0.906 2.173004,0.869c1.271996,-0.062 2.273994,-0.833 3.476997,-0.869c6.458,-0.198 13.431999,-0.144 19.120003,1.738c1.300995,-0.292001 2.312996,-0.872001 3.042,-1.738c5.270996,0.611 9.075996,-2.322 11.731995,1.304c0.729004,0.997999 0.621002,1.502 1.304001,3.476999c0.417999,1.209001 1.615997,2.189 1.737,2.606c0.239998,0.832001 -0.311996,2.131 0,3.042001c1.153,3.368999 2.625,6.272999 3.478004,8.691c0.284996,1.588999 -0.940002,1.667 -0.869003,3.042c1.418999,0.607 3.502998,0.552999 3.910004,2.173c0.482994,2.077999 -1.354004,1.833 -0.869003,3.910999c0.350998,1.779999 1.789001,-0.227001 2.606003,0.868999c0.895996,3.450001 1.544998,7.146 3.911995,9.125c0.481003,1.362999 0.203003,1.146999 -0.435997,2.172001c2.885002,1.750999 3.361,5.909 5.648003,8.257c2.328003,10.271999 6.535004,18.668003 10.862991,26.939999c0,1.014999 0,2.028 0,3.042c3.971008,4.577003 4.810013,12.284004 8.258011,17.383003c-1.172012,6.511002 -2.681,12.585999 -3.478012,18.685997c-0.682999,5.223999 -3.363998,10.314995 -3.910995,15.209007c-0.138992,1.23999 0.186005,2.679001 0,3.910995c-0.052994,0.347992 -0.783005,1.054993 -0.869003,1.737991c-0.093002,0.743011 0.662003,0.974014 0.436005,1.737c-0.143005,0.477005 -1.072998,0.554001 -1.304993,1.305008c-0.117004,0.384003 0.197998,0.681 0,1.304001c-0.576004,1.817001 -2.076004,4.996994 -2.172012,7.386993c-0.042999,1.042007 0.637009,1.625 0.435013,2.60701c-0.642014,3.115997 -3.119003,6.798996 -2.173004,10.863998c-0.835999,1.04599 -1.121002,2.645004 -3.041,2.606003c-0.414001,3.375 -0.344009,4.315994 1.302994,6.084c-1.539001,2.716995 -1.330002,4.155991 -1.737,7.386993c-0.649002,1.205994 -1.775993,-0.753998 -2.172997,0.436005c-0.695,1.710999 1.875999,0.151001 1.737999,1.304001c-0.854996,5.67099 -1.575996,10.112 -3.042,14.340988c0.848999,2.82901 -0.850998,3.915009 -0.434998,7.388c-1.362999,0.086014 -0.056,2.843002 -1.737999,2.606003c0.75,1.746002 0.675995,4.919006 -0.869003,5.649002c1.234001,7.238007 -1.594002,14.001999 -3.476997,19.555008c0.044998,6.528992 -1.310005,15.120987 -4.347,19.987991c0.516998,2.585022 -0.465004,6.618011 0.868996,8.256989c4.772003,-4.497986 2.077003,-16.463989 6.519005,-21.292969c0.145996,-6.859009 2.938995,-14.693008 3.477997,-22.597c0.891998,-0.847 1.427002,-2.050003 2.173004,-3.041c-0.188004,-0.684006 -1.367004,-0.372009 -0.869003,-1.738007c1.226997,-5.291992 1.292999,-11.742996 3.476997,-16.078003c0.313995,-1.328995 -0.75,-1.278 -0.436005,-2.606995c2.409012,-5.414001 1.389008,-13.477997 4.346008,-19.119003c0.212997,-1.371994 -0.783005,-1.535004 -0.434998,-3.041992c1.022003,-1.721008 1.270996,-3.666 2.172989,-5.649002c1.178009,-2.585999 -0.592987,-8.141998 3.042007,-10.863998c1.188004,-15.036011 6.431,-31.572006 9.125,-49.53801c0.908997,-0.183998 1.151001,0.299004 1.738007,0.436005c-0.478012,-3.900002 -0.531006,-3.751999 -0.435013,-7.821999c-0.110992,-0.902 -1.909988,-0.119003 -2.172989,-0.869003c0.136002,-1.727997 -1.003998,-2.182999 -0.868011,-3.911003c-4.503998,-5.779999 -4.950989,-15.618996 -9.995987,-20.856995c0.334,-1.639 -0.529007,-2.077003 -0.435013,-3.477005c-1.449997,-0.722 -0.852997,-3.491997 -2.605988,-3.910995c-2.028,-11.007999 -7.646004,-18.427002 -10.430008,-28.68c0.113998,-1.417999 -1.351997,-1.255001 -1.737999,-2.172001c0,-0.724998 0,-1.449001 0,-2.173c-0.743996,-0.415001 -0.875,-1.442001 -1.737,-1.737999c-3.588997,-11.186001 -8.200996,-21.348001 -13.904999,-30.418001c0.157997,-2.88001 3.348,-1.12201 5.207001,-0.88001zm-28.246002,170.776007c5.264,-3.287994 11.771004,-3.199997 16.078003,-7.821991c7.305,-0.518005 10.542,-5.102005 18.250999,-5.214005c2.450996,-1.844009 7.381996,-2.712006 10.863998,-2.173004c1.061996,-1.688004 3.574005,-1.931 3.910004,-4.347c-4.162003,-0.472 -8.293007,-0.977005 -9.994003,-3.910004c2.374001,-0.742996 4.128998,-3.676987 4.346001,-5.214996c0.811996,0.783005 1.935997,-1.80899 2.172997,-3.041992c-2.271996,-1.029007 -3.017998,-2.054001 -5.648994,-0.868011c0,-0.435989 0,-0.868988 0,-1.304993c-2.021004,0.709991 -3.409004,2.438004 -2.606003,4.779999c-0.772003,0.386002 -1.104004,1.212997 -2.606003,0.869003c-1.775002,3.729004 -5.841995,5.166992 -7.820999,8.690002c-1.322998,0.416 -1.749001,1.728989 -3.910995,1.304993c-2.456001,3.481995 -7.456001,4.421997 -10.863007,6.953003c-3.183998,-0.432007 -3.147995,2.354996 -6.518997,1.737c-3.797997,3.113998 -9.809998,2.242004 -12.601997,5.649002c-5.228004,-0.125 -7.843002,4.078003 -13.036003,2.606003c-2.486,1.715988 -5.583,2.817993 -9.994999,2.606995c-0.435001,0.578995 -0.716,1.311996 -1.304001,1.738007c-6.283001,0.052994 -12.649998,4.054993 -19.988998,2.605988c-0.901001,-0.177994 -2.538,-1.093994 -4.780001,-0.434998c-2.493999,1.998001 -3.704,5.347 -0.434999,7.387009c0.775999,0.485001 4.029999,-1.020004 3.476,1.737991c1.628,0.033997 1.313,-1.873001 3.476999,-1.304001c0.494999,1.822998 -1.917999,2.973999 -0.868999,3.910004c5.377998,1.710999 11.359001,-1.811996 14.34,-5.214996c4.413998,-2.393997 9.979,-3.636002 14.34,-6.083008c6.764,-1.203995 14.477997,-3.770996 19.554001,-5.214996l-0.153999,0.776001l0.589996,0.526993c-0.255997,2.863007 2.338005,2.878006 3.041,4.780014c9.847,1.741989 21.226997,1.949997 29.113998,5.647995c1.084999,4.274002 3.325005,7.395004 8.691002,7.388c1.382004,-2.242996 3.5,-3.084 3.476997,-5.649002c-0.029999,-3.261993 -3.598999,-4.222 -5.214996,-6.518005c0.966003,-1.785995 2.987999,-2.515991 3.042,-5.213989c-1.209999,-1.779999 -3.599998,0.102997 -5.214996,-0.869003c-1.332001,1.682999 -2.537003,2.834991 -4.346001,3.47699c-0.082001,0.029007 -1.229004,-0.542999 -1.737,-0.434998c-1.015007,0.216003 -1.024002,0.876999 -1.738007,0.869003c-3.490997,-0.041 -9.601997,-3.291 -14.773994,-3.910995c-1.445999,-0.173004 -2.818001,0.190002 -3.910004,0c-0.762001,-0.132004 -1.087997,-1.109009 -1.737999,-1.304001c-2.515999,-0.75 -4.066002,1.533997 -6.519997,1.304001l0.218994,-0.796997l-0.656998,-0.499008zm6.084,-68.223007c-6.237999,-0.028 -13.052002,-0.790001 -17.816002,3.042c-0.612,-1.244003 1.348999,-2.371002 -0.434998,-2.172997c-1.237999,1.282997 -2.070999,2.800995 -3.476997,3.910995c-0.250999,0.198997 -1.076004,-0.221001 -1.304001,0c-1.149002,1.120003 -2.02,2.823997 -4.345001,2.173004c-0.982002,1.045998 -0.532001,3.523994 -3.042,3.042c-0.452999,3.312996 -2.535,4.996994 -4.345001,6.952995c-0.159,5.081001 -0.176998,8.451996 -0.434998,13.904999c1.707996,2.783005 5.356998,3.623001 5.648998,7.822006c1.528999,0.830994 2.108002,-0.41301 3.477001,-0.869003c3.625999,3.955002 10.997002,1.514008 14.774002,-0.869003c0.090996,1.930008 -1.328003,5.839996 -2.173004,8.255997c-2.163002,-2.437988 -2.375999,1.949005 -4.779999,0.436005c-0.212997,1.371002 0.782997,1.533997 0.434998,3.042007c1.272003,-0.610001 2.597,-1.167999 4.779999,-0.869003c0.200005,-2.026001 1.125,-2.363007 3.042,-1.738007c0.745003,-0.992996 1.280006,-2.194992 2.172005,-3.041992c-0.276001,1.72699 0.553001,2.345001 1.305,3.041992c2.638,-0.653992 3.295998,-1.080994 4.778999,0.869003c2.132996,-1.442993 1.364998,-3.205994 1.305,-6.520004c0.811996,-0.347 1.591995,-0.725998 2.607002,-0.867996c-0.147003,3.604004 -0.951004,5.805008 2.605995,6.951996c1.312004,-2.030991 0.835999,-5.146988 0.434998,-6.951996c2.995003,-1.287994 4.100006,-3.384995 5.215004,-5.649002c0.049004,0.529999 0.128998,1.029007 0.869003,0.869003c4.145996,-1.817001 5.310997,-7.863007 5.214996,-12.602997c-0.948997,0.078995 -1.383003,-0.355003 -1.305,-1.304001c0,-1.159004 0,-2.318001 0,-3.477005c-0.982002,-0.465996 -1.909996,-0.986 -2.607002,-1.737999c0.32,-1.127998 1.428001,-1.470001 1.737999,-2.606995c-3.375,0.187996 -1.931,-4.441002 -3.476997,-6.083c-5.062996,-0.874001 -7.146996,-4.730003 -10.862,-6.953003zm-38.674999,53.013992c-4.212002,-3.899002 -9.437,-6.785995 -11.733002,-12.602997c0.546001,-5.694 -6.193998,-6.231003 -7.386999,-1.737c-1.083,4.080994 3.636,4.723999 4.780001,8.689987c-1.014,0 -2.028,0 -3.042,0c-0.285999,1.452011 -1.351,2.125 -1.738001,3.477005c1.980001,0.481995 1.993002,2.932999 3.042002,4.346008c4.621998,1.054001 8.75,0.038986 12.167,1.304001c1.740997,0.644989 3.133999,2.821991 5.214001,3.910995c0.622997,0.326004 1.843998,0.524002 2.606998,0.869003c2.226002,1.005997 4.687,1.806 6.518002,2.605988c3.687,-1.380997 5.855,0.929001 8.690998,-1.304001c0.279999,-2.536987 -2.495003,-1.626999 -4.346001,-2.605988c-3.347,-1.772003 -6.899998,-6.014008 -11.731998,-4.346008c-0.812,-0.772003 0.353001,-1.104004 0,-2.606003c-1.013,-0.000992 -2.027,-0.000992 -3.041,-0.000992z"/>
     <g id="svg_15">
      <path id="svg_16" d="m20.271999,56.300999c-0.446999,-0.292 -0.769999,-0.431 -1.085999,-0.650997" stroke-linecap="round" stroke-width="0.561" stroke="#000000" fill="none"/>
      <path id="svg_17" d="m37.219002,182.753998c0.292999,-0.194992 0.743999,-0.188004 1.085999,-0.216995" stroke-linecap="round" stroke-width="0.8691" stroke="#000000" fill="none"/>
      <path id="svg_18" d="m82.847,173.048996c-0.894997,0.636002 -1.952003,0.518997 -2.980003,0.70401" stroke-linecap="round" stroke-width="1.3969" stroke="#000000" fill="none"/>
     </g>
    </g>
   </g>
  </g>
 </switch>
 <g>
  <title>Layer 1</title>
  <polyline id="svg_19" points="66.72998046875,137.77499389648438 66.72998046875,136.77499389648438 " stroke-linecap="round" stroke-width="5" stroke="#000000" fill="none"/>
  <path d="m85.72998,130.774994c-1,0 -2.513008,-0.406006 -4,2c-1.662506,2.689987 -2,13 -2,23c0,11 0.723991,18.222733 4,22c1.853188,2.136749 3,2 3,1c0,-3 1.743477,-18.043457 0,-53c-1.501862,-30.112198 -6.719093,-59.033432 -9,-77c-1.78109,-14.02953 -0.769554,-21.158512 -3,-21c-3.15432,0.224171 -1.40403,14.055363 -3,28c-2.187218,19.110626 -5,34 -5,48c0,7 0,13 0,16c0,3 -0.176254,6.513741 2,6c1.946495,-0.459503 0,-5 0,-7c0,-2 1.130814,-0.04203 3,6c2.151596,6.954895 5,14 5,17c0,1 0,-2 0,-5c0,-10 5,-29 0,-29c-1,0 0,4 0,7c0,1 0,2 0,5c0,4 0.39595,7.226532 -1,7c-2.207191,-0.358177 -1.497551,-6.925797 -2,-12c-0.197075,-1.990265 -1,-4 -1,-3c0,5 -1.346863,14.929878 -3,24c-1.267899,6.956467 -1.878677,11.292892 -4,12c-2.121319,0.707108 -3.345184,-5.176971 -5,-10c-0.725685,-2.115036 -1,-4 -1,-4c0,2 -0.493458,5.878555 -1,9c-0.160183,0.987091 0,0 0,-1c0,-6 -0.459507,-11.053497 0,-13c0.513744,-2.176254 2.292892,-3.707108 3,-3c0.707108,0.707108 0,2 0,1c0,-4 -0.077682,-9.27346 3,-10c1.376381,-0.324921 -0.104759,5.395584 -4,13c-3.287563,6.418091 -6.793934,12.087433 -9,17c-0.916019,2.039825 -1.415184,-2.043564 -1,-4c2.04454,-9.634308 7.492943,-17.234009 10,-22c1.678558,-3.190994 3.458801,-6.306564 4,-5c1.148048,2.771637 -0.968552,7.412071 -3,11c-1.393562,2.461304 -2,3 -2,2c0,-2 0.493458,-5.878555 1,-9c0.320366,-1.974174 -0.102634,-3.632454 -2,-3c-4.743416,1.581139 -7,7 -9,10c-2,3 -2.639034,1.857773 -1,-4c1.451061,-5.185982 5.519283,-10.558189 8,-14c1.307453,-1.813995 1.229752,-3.973251 1,-3c-0.513744,2.176254 -3.755314,5.132004 -6,9c-1.809723,3.118477 -3,6 -3,9c0,1 2,0 5,-3c3,-3 5.693436,-6.458801 7,-7c0.923878,-0.382683 1.800911,1.06456 1,6c-0.506542,3.121445 -1.585785,6.585785 -3,8c-0.707108,0.707108 -0.290745,-0.113136 1,-3c3.290771,-7.360085 7.288589,-11.868286 9,-16c1.210152,-2.921562 -0.692551,-3.813995 -2,-2c-3.307621,4.589081 -7,8 -10,11c-2,2 -5,4 -4,5c1,1 2.796997,-4.7435 4,-4c2.689995,1.662506 -2.418861,4.418861 -4,6c-1.581139,1.581139 -1.175571,0.902115 0,-1c0.52573,-0.850655 2,-2.236069 2,0c0,2.236069 -3.617317,5.076126 -4,6c-0.541195,1.306564 -0.52573,0.850647 0,0c1.175571,-1.902115 4,-2 4,-2c-1,0 -2.128185,1.910461 0,-1c3.779461,-5.168724 5.385098,-9.372017 8,-13c1.653809,-2.29454 1.653809,-0.29454 0,2c-1.307453,1.813995 -1.813992,3.307449 0,2c1.14727,-0.826904 2.186005,-2.692551 4,-4c1.14727,-0.826904 2.707108,-0.707108 2,0c-0.707108,0.707108 1.103401,-1.906326 2,-3c2.285881,-2.788322 4.693436,-5.541199 6,-5c1.847755,0.765366 -1.035515,6.504242 -4,11c-1.557022,2.36129 -2.479836,2.676331 -1,1c2.386162,-2.703003 6.70546,-7.346191 9,-9c1.813995,-1.307449 1,-1 0,0c-2,2 -5.91761,3.386871 -7,6c-0.765366,1.847755 -0.916016,1.039833 0,-1c2.206062,-4.91256 4.789848,-8.078438 6,-11c0.855705,-2.065857 2.24437,-1.985016 2,0c-0.503777,4.092216 -2.95517,5.549156 -4,9c-0.289787,0.957092 0,0 1,-2c1,-2 2.292892,-4.707108 3,-4c0.707108,0.707108 0.366547,2.022476 0,5c-0.503777,4.092216 -2.458801,6.693436 -3,8c-0.382683,0.923882 1.513008,-0.593994 3,-3c1.662506,-2.689995 2,-4 2,-3c0,2 -0.492943,7.234009 -3,12c-1.678558,3.190994 -1.823746,7.513748 -4,7c-1.946495,-0.459503 1.337494,-5.310005 3,-8c1.486992,-2.406006 3.229752,-2.973251 3,-2c-0.513741,2.176254 -2.95517,3.549156 -4,7c-0.289787,0.957092 0,0 0,-1c0,-2 1.707108,-4.292892 1,-5c-0.707108,-0.707108 -3.107002,-0.919014 -7,0c-2.176254,0.513741 -4.152245,1.234634 -6,2c-1.306564,0.541199 -1.458801,1.693436 -2,3c-0.382683,0.923874 1,1 2,1c1,0 2.707108,0.292892 2,1c-0.707108,0.707108 -1.823746,0.486252 -4,1c-1.946499,0.459503 -3,0 -2,0c3,0 6,1 8,1c2,0 2,0 2,1c0,3 -0.493462,4.878555 -1,8c-0.160179,0.987091 1,-1 0,-1c-1,0 -1,3 -2,6c-1,3 -4,7 -2,7c1,0 -0.414215,-3.585785 1,-5c0.707108,-0.707108 1,1 1,2c0,1 1,2 2,2c2,0 3.823746,-1.486252 6,-2c0.973251,-0.229752 2.382683,0.076126 2,1c-0.541199,1.306564 -2.337494,3.310013 -4,6c-0.7435,1.203003 -2,2 -2,1c0,-1 -0.210152,-3.07843 1,-6c0.855705,-2.065857 3,-5 2,-5c-1,0 -0.289787,-0.042908 0,-1c1.04483,-3.450851 3,-6 5,-9c0,0 -0.144295,0.934143 -1,3c-1.210152,2.92157 -2.486259,4.823746 -3,7c-0.459503,1.946503 -0.229752,2.973251 0,2c0.513741,-2.176254 2.755318,-5.132004 5,-9c1.809723,-3.118484 3.585785,-5.414215 5,-4c0.707108,0.707108 0,5 0,8c0,2 -0.382683,3.923874 0,3c0.541199,-1.306564 0.923882,-3.38269 0,-3c-2.613129,1.082397 -4.186005,2.692551 -6,4c-1.14727,0.826904 -2,1 -2,1c0,-1 0,-2 1,-3c0,0 -1,2.585785 -1,4c0,1.414215 2.85273,-1.173096 4,-2c1.813995,-1.307449 0,2 2,2c1,0 -0.306564,-4.541199 1,-4c0.923882,0.38269 0,2 -1,4c-1,2 -2.541199,3.693436 -2,5c0.765366,1.847763 3,-2 5,-4c3,-3 4.693436,-6.541199 6,-6c0.923882,0.38269 -1,5 0,5c1,0 0,-2 0,-3c0,-1 -1.076118,-1.38269 -2,-1c-1.306564,0.541199 -1,2 -1,1c0,-2 -0.306564,-4.458801 1,-5c0.923882,-0.38269 1.382683,-1.923874 1,-1c-0.541199,1.306564 -1.692551,2.186005 -3,4c-0.826904,1.147263 -2,0 -2,-2c0,-2 1.707108,-4.292892 1,-5c-1.414215,-1.414215 -3.012909,-0.160187 -4,0c-3.121445,0.506546 -2,3 -2,3c0,1 0,2 0,3c0,1 1,1 2,1c4,0 5.85273,-1.173096 7,-2c1.813995,-1.307449 1.306564,-0.541199 0,0c-0.923882,0.38269 -2.229752,0.973251 -2,0c1.027489,-4.352509 4,-7 6,-10c2,-3 3.229752,-3.973251 3,-3c-0.513741,2.176254 -4,4 -4,5c0,1 0.617317,0.923874 1,0c1.08239,-2.613129 3.675079,-4.376389 4,-3c0.72654,3.077682 -2.173096,4.852737 -3,6c-1.307449,1.813995 -2.229752,1.973251 -2,1c1.027489,-4.352509 4.346191,-6.70546 6,-9c1.307449,-1.813995 2.122185,-1.992508 2,-1c-0.503777,4.092209 -4.190277,7.881516 -6,11c-1.122345,1.93399 -1.229752,2.973251 -1,2c0.513741,-2.176254 4.486259,-4.823746 5,-7c0.229752,-0.973251 1.382683,-1.923874 1,-1c-0.541199,1.306564 -1.693436,3.458801 -3,4c-1.847755,0.765366 -2.654816,-2.176971 -1,-7c1.45137,-4.230072 3.197075,-5.990265 3,-4c-0.502449,5.074203 -2.789848,9.07843 -4,12c-1.711411,4.131714 -3.229752,5.973251 -3,5c0.513741,-2.176254 2.824623,-9.06134 5,-15c1.852272,-5.056587 3.234634,-9.152245 4,-11c0.541199,-1.306564 1,0 0,3c-1,3 -0.968552,6.412071 -3,10c-0.696785,1.230652 -1.378212,-0.036087 -1,-2c1.018372,-5.287994 2.234634,-9.152245 3,-11c1.08239,-2.613129 2,-1 2,1c0,4 -0.789848,8.078438 -2,11c-0.855705,2.065857 -1,1 -1,-5c0,-5 0.345184,-11.176971 2,-16c0.725685,-2.115036 1.366547,0.022476 1,3c-0.503777,4.092216 -2.569504,8.133003 -4,12c-0.775795,2.097176 -0.826904,3.14727 0,2c1.307449,-1.813995 2,-2 3,-2c1,0 1.486259,2.823746 2,5c0.689262,2.919754 0,6 0,7c0,1 0.115868,-0.963837 1,-4c1.152771,-3.958679 1.486259,-6.823746 2,-9c0.229752,-0.973251 0.197075,1.009735 0,3c-0.502449,5.074203 -1.968552,11.412079 -4,15c-0.696785,1.230652 -1,-1 -1,-8c0,-6 -1,-14 -1,-18c0,-3 -1,-3 -1,-2c0,4 0.493462,9.878555 1,13c0.320366,1.974174 0,3 0,2c0,-4 0,-7 0,-10c0,-1 0,1 0,5c0,3 -0.292892,5.707108 -1,5c-0.707108,-0.707108 0,-4 0,-9c0,-5 0.164963,-6.993187 0,-5c-0.501709,6.062035 -2.337494,9.310005 -4,12c-0.7435,1.203003 -1.458801,2.306564 -2,1c-1.530731,-3.695518 0,-8 0,-11c0,-2 0.160179,-0.987091 0,0c-0.506538,3.121445 -2,6 -2,8c0,1 0,0 0,-2c0,-4 0,-8 0,-11c0,-2 0,0 0,6c0,5 0,9 0,11c0,1 0,0 0,-2c0,-3 0,-7 0,-9c0,-2 0,-1 0,3c0,4 0,8 0,10c0,2 -1.496223,0.092209 -2,-4c-0.610916,-4.96254 0,-9 -1,-9c-1,0 0,5 0,9c0,6 -1.496223,9.907791 -2,14c-0.122185,0.992508 0,0 0,-2c0,-3 1,-5 1,-6c0,-1 0,0 0,1c0,1 -0.498291,0.062042 -1,-6c-0.494881,-5.979553 0,-11 0,-14c0,-2 0,0 0,2c0,4 0,7 0,9c0,2 1,2 1,-1c0,-4 1,-9 1,-13c0,-2 0,0 0,4c0,3 0,6 1,6c2,0 0,-3 0,-9c0,-4 0,-8 0,-11c0,-2 -0.247444,-0.989777 0,2c0.501709,6.062035 2.288589,9.868286 4,14c2.420303,5.843124 3.81266,12.793198 6,11c2.788322,-2.285881 -4.692383,-4.410919 -8,-9c-2.614906,-3.627983 -4,-5 -4,-5c0,-1 1.283257,-1.432755 3,0c3.83876,3.203735 6.190277,6.881523 8,10c1.122345,1.933998 1.229752,2.973251 1,2c-0.513741,-2.176254 -3.972511,-6.647499 -5,-11c-0.689262,-2.919746 2.20681,-1.18734 4,1c2.285881,2.788322 4.541199,4.693436 4,6c-0.382683,0.923882 -3.190277,-1.881523 -5,-5c-1.122345,-1.933998 -3,-3 -3,-3c-4,-1 -8,-3 -11,-6c-2,-2 -2.946495,-4.459503 -1,-4c6.528755,1.541229 11.211678,6.714119 14,9c2.18734,1.79319 1.358826,1.449623 -3,-1c-4.694595,-2.638329 -9.186005,-4.692551 -11,-6c-1.14727,-0.826904 0,-1 4,2c4,3 7.24292,6.946999 8,11c1.480385,7.925179 1.838692,14.244034 0,19c-2.102623,5.43866 -4.418861,7.418854 -6,9c-1.581139,1.581146 -4.211678,1.714127 -7,4c-1.093674,0.896591 -3,2 -4,2c-1,0 -5.211678,0.285873 -8,-2c-2.18734,-1.793198 -3.693436,-3.458801 -5,-4c-2.771637,-1.148056 -5,0 -8,0c-2,0 -2,1 -2,3c0,3 0.486256,4.823746 1,7c0.229752,0.973251 -1,1 -2,1c-2,0 -2.812656,-3.793198 -5,-2c-2.788326,2.285873 3.723991,4.222733 7,8c2.779785,3.205124 5,4 6,5c0,0 -4.746746,-3.371338 -9,-6c-3.804226,-2.351135 -4.693436,-4.458801 -6,-5c-0.923878,-0.38269 2.222729,1.723984 6,5c3.20512,2.779785 5.824429,5.097885 7,7c0.52573,0.850647 -2.336452,2.365829 -9,0c-5.4949,-1.950912 -8.692547,-4.186005 -10,-6c-0.826904,-1.147263 1.3036,-1.627426 8,2c6.34058,3.434677 11.541195,5.693436 11,7c-0.765366,1.847763 -3.159279,0.389359 -6,-1c-3.238922,-1.584106 -4.17625,-3.486252 -2,-4c2.919746,-0.689255 7.107002,-0.919006 11,0c2.176254,0.513748 1.04673,0.92807 -2,-1c-4.927216,-3.118103 -8.097885,-7.824432 -10,-9c-0.850651,-0.525726 0.257626,-1.006271 6,1c9.71949,3.395813 13.888557,9.194092 19,12c1.960152,1.076019 2.923882,2.38269 2,2c-1.306564,-0.541199 -4.837723,-1.837723 -8,-5c-1.581139,-1.581146 -2,-3 -3,-3c-2,0 -6,0 -9,0c-2,0 -0.788326,-0.285873 2,2c3.281013,2.689789 5.617317,4.076126 6,5c0.541199,1.306564 -4.918304,0.887863 -9,-2c-2.943356,-2.082474 -6.917606,-4.386871 -8,-7c-0.382683,-0.923874 1,-1 2,-1c1,0 0.187344,-0.206802 -2,-2c-2.788326,-2.285873 -4.693436,-5.541199 -6,-5c-0.923878,0.38269 0,2 1,4c1,2 1,4 -1,4c-2,0 -3,0 -4,0c0,0 -1,0 -2,0c-1,0 -1.692547,-0.186005 -3,-2c-0.826904,-1.147263 -2,-3 -2,-3c-1,0 -1,-1 -1,-2c0,-1 -1,-2 -1,-3c0,-1 0,-1 0,-2c0,0 2,0 3,0c1,0 0.617317,1.076126 1,2c0.541195,1.306564 1.292892,1.292892 2,2c0.707108,0.707108 0,2 1,3c1,1 1,2 1,3c0,1 0.292892,1.292892 1,2c0.707108,0.707108 1.229752,0.973251 1,0c-0.513744,-2.176254 -2,-5 -3,-7c-1,-2 -1,-4 -1,-5c0,-1 0,-2 0,-3c0,0 -1.693436,-1.458801 -3,-2c-0.923878,-0.38269 -2,-1 -2,-2c0,-1 -0.707108,-2.292892 0,-3c0.707108,-0.707108 2.292892,-0.707108 3,0c0.707108,0.707108 0,2 0,3c0,1 0,2 0,3c0,1 0,2 0,3c0,1 -0.382683,1.076126 0,2c0.541195,1.306564 1.076122,1.61731 2,2c1.306564,0.541199 2,2 3,3c1,1 2,2 2,3c0,1 1,1 1,0c0,-2 -1.493458,-3.878555 -2,-7c-0.160183,-0.987091 -1.346191,-3.70546 -3,-6c-1.307453,-1.813995 -2.292892,-2.292892 -3,-3c-0.707108,-0.707108 0,-2 0,-3c0,-1 -1.382683,-0.923874 -1,0c1.082394,2.613129 4.144295,4.934143 5,7c1.210152,2.92157 2.458805,4.693436 3,6c0.382683,0.923874 0.692547,1.186005 2,3c0.826904,1.147263 2,2 3,3c1,1 1.85273,2.173096 3,3c1.813992,1.307449 3.692547,2.186005 5,4c1.653809,2.29454 3.82375,3.486252 6,4c1.946499,0.459503 2.693436,2.458801 4,3c0.923882,0.38269 1.878555,1.493454 5,2c0.987091,0.160187 1.292892,0.292892 2,1c1.414215,1.414215 3,0 3,-1c0,-1 -1.186005,-1.692551 -3,-3c-2.29454,-1.653809 -2.292892,-3.292892 -3,-4c-1.414215,-1.414215 -3.076118,-0.61731 -4,-1c-1.306564,-0.541199 -2.458805,-0.693436 -3,-2c-0.382683,-0.923874 -0.923878,-2.38269 0,-2c1.306564,0.541199 3.310005,0.337494 6,2c1.203003,0.7435 2.823746,2.486252 5,3c0.973251,0.229752 1.693436,1.458801 3,2c0.923882,0.38269 1,1 1,1c0,1 -1,1 -4,1c-2,0 -5,0 -9,0c-3,0 -7,-2 -7,0c0,1 4,0 9,0c4,0 6,0 7,0c0,0 -5,0 -9,1c-4,1 -7.82375,1.486252 -10,2c-1.946499,0.459503 -4,0 -5,0c-2,0 -4,-1 -4,0c0,1 4,0 10,0c6,0 12.513741,1.176254 12,-1c-0.459503,-1.946503 -6,2 -8,3c-4,2 -5.82375,3.486252 -8,4c-0.973248,0.229752 -2.985016,0.24437 -1,0c4.092213,-0.503769 10.030441,-1.806168 17,-3c5.025818,-0.860886 9,-1 9,-2c0,-2 -6.924843,2.284729 -14,4c-4.955467,1.201385 -8.82375,2.486252 -11,3c-1.946499,0.459503 -1,0 3,0c1,0 0,0 -1,0c-8,0 -13.03746,-0.610916 -18,0c-4.092213,0.503769 -8.878679,-0.121323 -11,2c-0.707108,0.707108 1,1 3,1c1,0 1,1 1,2c0,1 -0.707108,2.292892 0,3c0.707108,0.707108 3.007492,0.122177 4,0c4.092213,-0.503769 7,-2 10,-3c6,-2 8.418861,-3.418854 10,-5c1.581139,-1.581146 1.693436,-2.458801 3,-3c0.923878,-0.38269 1,0 -1,0c-3,0 -5.053501,0.540497 -7,1c-2.17625,0.513748 -3.292892,0.292892 -4,1c-0.707108,0.707108 -0.292892,3.292892 -1,4c-0.707108,0.707108 -0.292892,1.292892 -1,2c-0.707108,0.707108 -1,2 -2,2c-1,0 -1,1 -2,1c-1,0 -2,0 -3,0c-2,0 -3,0 -3,0c-1,0 -2,0 -3,0c-1,0 -1.92388,0.38269 -1,0c1.306562,-0.541199 2.693438,-2.458801 4,-3c0.923878,-0.38269 2,-1 4,-1c1,0 0,0 -1,0c0,0 -1,0 -2,0c0,0 1,0 3,0c1,0 3,-1 4,-1c1,0 2.026752,-1.770248 3,-2c2.17625,-0.513748 3,-1 2,-1c-2,0 -4,2 -5,2c-1,0 -0.923878,2.38269 0,2c2.613125,-1.082397 3.692547,-3.186005 5,-5c0.826904,-1.147263 2.458805,-0.693436 3,-2c0.382683,-0.923874 -1,-1 -2,-1c-1,0 -2,0 -3,0c-2,0 -4,0 -5,0c-1,0 -2,0 -1,0c1,0 3,0 5,0c2,0 4,0 5,0c1,0 0.881523,-2.190277 4,-4c3.867996,-2.24469 8.186008,-4.692551 10,-6c1.14727,-0.826904 -0.761078,-0.584106 -4,1c-2.840721,1.389359 -6.186008,2.692551 -8,4c-1.14727,0.826904 -3,2 -4,2c-1,0 -2.292892,0.292892 -3,1c-0.707108,0.707108 -1.076122,1.61731 -2,2c-2.613125,1.082397 -3,2 -3,2c-1,0 -2,0 -3,0c0,0 -1,0 -2,0c-1,0 -2,0 -3,0c-1,0 -1.292892,-1.292892 -2,-2c-0.707108,-0.707108 -2,0 -2,0c-2,0 -3,0 -4,0c0,0 0,1 1,1c0,0 1,0 2,0c1,0 2,0 3,0c2,0 3,0 3,-1c0,-1 1,-1 1,-1c1,0 3,0 6,0c3,0 6.080254,-0.689255 9,0c2.17625,0.513748 4,1 6,2c2,1 4.053501,0.540497 6,1c2.17625,0.513748 4,1 8,1c2,0 7,0 10,0c2,0 4.053505,-0.459503 6,0c2.176254,0.513748 5,1 6,1c1,0 2,0 2,0c1,0 2,0 3,0c1,0 1,-1 2,-2c1,-1 1,-2 0,-2c-1,0 -2,0 -3,0c-2,0 -4,0 -7,0c-3,0 -6.292892,0.707108 -7,0c-0.707108,-0.707108 -0.707108,-1.292892 0,-2c0.707108,-0.707108 2.296997,-1.613831 5,-4c1.676331,-1.479843 2.693436,-1.458801 4,-2c0.923882,-0.38269 2.292892,0.707108 3,0c0.707108,-0.707108 0.292892,-1.292892 1,-2c1.414215,-1.414215 3.076118,-0.61731 4,-1c1.306564,-0.541199 1,-1 -1,-1c-1,0 -1.878555,1.493454 -5,2c-0.987091,0.160187 -1,1 -2,1c-1,0 -3,-1 -3,0c0,1 2.134644,-2.811447 5,-5c2.513084,-1.919479 5.186005,-2.692551 7,-4c1.14727,-0.826904 0.973251,-2.229752 0,-2c-2.176254,0.513748 -4,2 -8,4c-2,1 -2.693436,2.458801 -4,3c-0.923882,0.38269 -2.707108,2.292892 -2,3c0.707108,0.707108 2.152245,0.765366 4,0c1.306564,-0.541199 3.707108,-1.292892 3,-2c-0.707108,-0.707108 -2.076118,-0.38269 -3,0c-1.306564,0.541199 -2.693436,2.458801 -4,3c-0.923882,0.38269 0.053505,0.459503 2,0c2.176254,-0.513748 6.186005,-2.692551 8,-4c2.29454,-1.653809 4.186005,-2.692551 6,-4c1.14727,-0.826904 2.076118,-0.61731 3,-1c1.306564,-0.541199 3.026749,-1.770248 4,-2c2.176254,-0.513748 2.026749,-1.770248 3,-2c2.176254,-0.513748 2.617317,-1.076126 3,-2c0.541199,-1.306564 -2,0 -4,2c-2,2 -4,4 -5,5c-1,1 -2.541199,1.693436 -2,3c0.765366,1.847763 5.159279,-1.610641 8,-3c3.238922,-1.584106 4.593994,-3.513 7,-5c2.689995,-1.662506 4,-2 6,-3c0,0 -0.076118,-1.38269 -1,-1c-1.306564,0.541199 -2.211678,1.714127 -5,4c-2.18734,1.793198 -3.693436,3.458801 -5,4c-0.923882,0.38269 0.186005,0.307449 2,-1c2.29454,-1.653809 4.186005,-2.692551 6,-4c1.14727,-0.826904 2.292892,-0.292892 3,-1c1.414215,-1.414215 2,-2 3,-2c0,0 2.292892,-0.292892 3,-1c0.707108,-0.707108 0.292892,-1.292892 1,-2c0.707108,-0.707108 2,0 3,0c1,0 1,1 1,2c0,1 0,2 0,3c0,1 0,2 0,3c0,0 -1,1 -2,1c-1,0 -1.693436,0.458801 -3,1c-0.923882,0.38269 -2,0 -3,0c-2,0 -2,0 -3,0c-1,0 0.026749,0.229752 1,0c2.176254,-0.513748 3.152245,-1.234634 5,-2c1.306564,-0.541199 2,-1 2,-1c3,-1 2,-1 1,-1c-1,0 -2,0 -4,0c-2,0 -3,0 -4,0c-2,0 -4,0 -6,0c-1,0 -3,0 -4,0c0,0 1.149345,0.525726 2,0c1.902115,-1.175568 3.418861,-4.418854 5,-6c1.581139,-1.581146 3.707108,-4.292892 3,-5c-1.414215,-1.414215 -3,1 -5,3c-4,4 -5,6 -5,5c0,-1 1.20681,-2.812653 3,-5c2.285881,-2.78833 4.486259,-5.823746 5,-8c0.459503,-1.946503 0.693436,-3.541199 2,-3c0.923882,0.38269 0,5 0,6c0,1 0,2 0,2c0,1 0,0 0,0c1,-1 0.617317,-2.076126 1,-3c0.541199,-1.306564 1,0 1,1c0,1 1,1 2,1c1,0 1.585785,-2.414215 3,-1c0.707108,0.707108 -0.310745,3.080246 -1,6c-1.027489,4.352509 -3.359268,9.051651 -4,13c-0.506538,3.121445 -1.877655,5.06601 -3,7c-1.809723,3.118484 -2.692551,5.186005 -4,7c-1.653809,2.29454 -4.549156,5.95517 -8,7c-0.957092,0.28978 -4,1 -6,1c-3,0 -5.025826,0.679642 -7,1c-3.121445,0.506546 -3,1 -4,1c-1,0 -1.012909,0.160187 -2,0c-3.121445,-0.506546 -4.012909,-1.839813 -5,-2c-3.121445,-0.506546 -3,-2 -3,-2c2,0 3,0 7,0c3,0 6.693436,-1.458801 8,-2c1.847755,-0.765366 2.306564,-1.458801 1,-2c-0.923882,-0.38269 -2.823746,-0.486252 -5,-1c-0.973251,-0.229752 1.022476,-0.366547 4,0c4.092216,0.503769 6.878555,1.493454 10,2c1.974174,0.320358 1,0 -1,0c-1,0 -2.549156,-1.95517 -6,-3c-2.871277,-0.869354 -5.078438,-0.789856 -8,-2c-2.065857,-0.855713 -1.121445,-0.506546 2,0c1.974174,0.320358 2.693436,0.458801 4,1c0.923882,0.38269 1.292892,0.292892 2,1c0.707108,0.707108 0,2 -2,2c-1,0 -4,0 -6,0c-4,0 -6,0 -5,0c2,0 4.925797,0.497559 10,1c3.98053,0.39415 7.907784,0.496231 12,1c4.96254,0.610916 7.152245,0.234634 9,1c1.306564,0.541199 0,1 -1,1c-2,0 -3,0 -5,0c-1,0 -2,0 -3,0c-1,0 -3,0 -5,0c-1,0 0.458801,-0.306564 1,1c0.382683,0.923874 0.693436,1.458801 2,2c1.847755,0.765366 2.693436,0.458801 4,1c0.923882,0.38269 1.292892,0.292892 2,1c0.707108,0.707108 2,1 3,1c1,0 2,1 2,1c1,0 2,0 3,0c1,0 1,0 2,0c1,0 1.292892,0.707108 2,0c0.707108,-0.707108 0,-1 0,-2c0,-1 0,-2 0,-2c0,-1 -1,-1 -2,-1c-3,0 -3,0 -4,0c-1,0 -1,0 -1,1c0,1 0.474266,1.149353 1,2c1.175568,1.902115 2,2 2,2c0,1 0,2 0,3c0,0 -0.292892,0.292892 -1,1c-0.707108,0.707108 -1,0 -1,-1c0,-1 0,-2 0,-4c0,-2 -0.122185,-4.007492 0,-5c0.503777,-4.092209 1,-5 1,-6c0,-1 -0.707108,-1.292892 0,-2c0.707108,-0.707108 1,1 1,1c0,1 0,2 0,3c0,1 0,1 -1,1c-1,0 -2,0 -3,0c-2,0 -3,0 -4,0c-1,0 -4,0 -5,0c-1,0 -2,0 -3,0c-2,0 -3,0 -2,0c2,0 3,0 4,0c2,0 3,0 3,-1l2,0l0,-1l1,0" id="svg_20" stroke-width="5" stroke="#000000" fill="none"/>
  <path d="m65.72998,147.774994c1,-1 1,-3 1,-4c0,-1 0,-2 0,-2c0,-1 0.382683,-2.076126 0,-3c-0.541199,-1.306564 -1.692551,-1.186005 -3,-3c-1.653809,-2.29454 -2.458805,-2.693436 -3,-4c-0.382683,-0.923874 -0.292892,-2.292892 -1,-3c-0.707108,-0.707108 -1,-1 -1,0c0,1 0,2 0,3c0,2 2.220215,6.794876 5,10c3.276009,3.777267 5.346191,5.70546 7,8c1.307449,1.813995 2.076118,2.61731 3,3c1.306564,0.541199 1.229752,1.973251 1,1c-0.513741,-2.176254 -3.288589,-5.868286 -5,-10c-2.420303,-5.843124 -4.95517,-8.549149 -6,-12c-0.579567,-1.914185 -1.076122,-2.61731 -2,-3c-1.306564,-0.541199 -2.693436,-2.458801 -4,-3c-0.923878,-0.382683 -1.973248,-0.229752 -1,0c2.17625,0.513741 4,2 7,5c2,2 5.190277,3.881516 7,7c1.122345,1.93399 2.292892,3.292892 3,4c0.707108,0.707108 1,1 1,1c-1,0 -2,-1 -4,-3c-2,-2 -2.692551,-3.186005 -4,-5c-0.826904,-1.147263 -3,-2 -4,-3c-1,-1 0.053501,-1.459503 2,-1c2.176254,0.513748 7.7257,1.724274 12,5c3.968582,3.041443 5,5 6,6c1,1 3.292892,1.707108 4,1c0.707108,-0.707108 0,-2 0,-3c0,-1 0.382683,-2.076126 0,-3c-0.541199,-1.306564 -0.617317,-2.076126 -1,-3c-0.541199,-1.306564 -1.292892,-1.292892 -2,-2c-0.707108,-0.707108 -1,-1 -1,-1c0,-1 0,-2 1,-2c1,0 1,0 2,0c1,0 1.292892,0.292892 2,1c0.707108,0.707108 1.076118,1.61731 2,2c1.306564,0.541199 1.585785,0.585785 3,2c0.707108,0.707108 -0.306564,2.458801 1,3c0.923882,0.38269 1.617317,0.076126 2,1c0.541199,1.306564 1,2 2,2c0,0 -1.458801,-0.693436 -2,-2c-0.382683,-0.923874 -1,-1 -1,0c0,3 2.493462,4.878555 3,8c0.320366,1.974182 0.097885,3.824432 2,5c0.850655,0.525726 2,2 2,3c0,1 0,2 0,2c0,1 0,2 0,3c0,1 0,1 1,1c1,0 2,0 2,-1c0,0 0.292892,-0.292892 1,-1c1.414215,-1.414215 2,-1 3,-1c0,0 -0.382683,1.076126 0,2c0.541199,1.306564 1,4 1,5c0,1 1,2 1,3c0,1 2.458801,9.693436 3,11c0.382683,0.923874 0,2 0,2c0,1 0,2 0,2c1,1 -1,5 1,5c1,0 0.076118,-1.61731 1,-2c1.306564,-0.541199 1.486259,-1.823746 2,-4c0.459503,-1.946503 1.496223,-2.907791 2,-7c0.24437,-1.985016 1,-4 1,-8c0,-2 0,-3 0,-5c0,-1 0,-2 0,-3c0,0 -0.414215,-0.585785 1,-2c0.707108,-0.707108 1,-2 1,-3c0,0 1,-1 1,-2c0,-1 1,-1 1,-2c0,-2 0,-3 0,-4c0,0 1,0 1,-2c0,-1 1,-1 1,-2c0,-1 0.292892,-1.292892 1,-2c0.707108,-0.707108 2,-2 1,-2c-1,0 0,3 0,4c0,1 0,2 0,3c0,3 -1,5 -1,5c0,1 0,2 -2,4c-1,1 -2.693436,3.458801 -4,4c-0.923882,0.38269 -4.053505,1.540497 -6,2c-2.176254,0.513748 -5,1 -6,1c-1,0 -2.585785,1.414215 -4,0c-1.414215,-1.414215 0,-3 0,-4c0,-1 0,-1 0,-2c0,-1 -1,-1 -2,-1c-1,0 -1,2 -1,3c0,1 0.306564,1.458801 -1,2c-1.847755,0.765366 -4.016045,0.537109 -13,0c-25.134476,-1.502686 -36.111301,-7.64505 -43,-10c-5.095634,-1.741989 -8.0718,-2.691238 -13,-4c-3.056341,-0.811661 -8.228361,-0.851944 -11,-2c-1.306562,-0.541199 -2.292892,-1.292892 -3,-2c-0.707108,-0.707108 1.292892,-1.707108 2,-1c0.707108,0.707108 1,2 2,2c1,0 1.292892,1.292892 2,2c0.707108,0.707108 2,1 3,2c1,1 1.292892,1.292892 2,2c0.707108,0.707108 2,2 2,2c0,1 1.292892,1.707108 2,1c0.707108,-0.707108 0,-1 0,-2l0,-1l0,-1" id="svg_21" stroke-width="5" stroke="#000000" fill="none"/>
 </g>
</svg>